<svg width="700" height="700" xmlns="http://www.w3.org/2000/svg" class="transition duration-300 ease-in-out delay-150">
 <defs>
  <linearGradient id="gradient">
   <stop stop-color="orange" offset="5%"/>
   <stop stop-color="#32ded444" offset="95%"/>
  </linearGradient>
  <linearGradient id="gradient">
   <stop stop-color="#002bdc66" offset="5%"/>
   <stop stop-color="#32ded466" offset="95%"/>
  </linearGradient>
  <linearGradient id="gradient">
   <stop stop-color="#002bdc88" offset="5%"/>
   <stop stop-color="red" offset="95%"/>
  </linearGradient>
  <linearGradient id="gradient">
   <stop stop-color="#002bdcff" offset="5%"/>
   <stop stop-color="green" offset="95%"/>
  </linearGradient>
 </defs>



 <g>
  <title>Layer 1</title>
  <path transform="rotate(-31.8344 439.999 632.572)" id="svg_1" class="transition-all duration-300 ease-in-out delay-150" fill="url(#gradient)" stroke-width="0" d="m-280.00149,937.14412c0,0 0,-560 0,-560c53.60608,18.57235 107.21217,37.1447 160,33c52.78783,-4.1447 104.75742,-31.00646 153,-31c48.24258,0.00646 92.75815,26.88115 143,35c50.24185,8.11885 106.20998,-2.51813 142,-21c35.79002,-18.48187 51.40191,-44.80861 101,-40c49.59809,4.80861 133.18236,40.75258 184,47c50.81764,6.24742 68.86865,-17.20172 109,-38c40.13135,-20.79828 102.34306,-38.94569 158,-33c55.65694,5.94569 104.75913,35.98448 152,48c47.24087,12.01552 92.62044,6.00776 138,0c0,0 0,560 0,560l-1440,0z"/>
  <path transform="rotate(-40.9563 511.427 614.533)" id="svg_2" class="transition-all duration-300 ease-in-out delay-150" fill="url(#gradient)" stroke-width="0" d="m-208.57253,852.85795c0,0 0,-420 0,-420c56.65689,-13.82598 113.31378,-27.65196 157,-29c43.68622,-1.34804 74.40177,9.78186 126,14c51.59823,4.21814 124.07915,1.52452 173,-6c48.92085,-7.52452 74.28165,-19.87993 118,-24c43.71835,-4.12007 105.79426,-0.00478 162,28c56.20574,28.00478 106.54132,79.89907 149,68c42.45868,-11.89907 77.04047,-87.5915 120,-104c42.95953,-16.4085 94.2968,26.46694 145,50c50.7032,23.53306 100.77234,27.72373 149,25c48.22766,-2.72373 94.61383,-12.36187 141,-22c0,0 0,420 0,420l-1440,0z"/>
  <path transform="rotate(-34.7154 487.142 632.478)" stroke="null" id="svg_3" class="transition-all duration-300 ease-in-out delay-150" fill="url(#gradient)" stroke-width="0" d="m-232.85838,795.71479c0,0 0,-280 0,-280c34.3325,-20.47494 68.66499,-40.94988 120,-27c51.33501,13.94988 119.67253,62.32458 174,66c54.32747,3.67542 94.6449,-37.34844 145,-50c50.3551,-12.65156 110.74787,3.06917 154,7c43.25213,3.93083 69.36364,-3.92823 109,3c39.63636,6.92823 92.79759,28.64375 144,28c51.20241,-0.64375 100.44601,-23.64678 153,-44c52.55399,-20.35322 108.41838,-38.05664 154,-25c45.58162,13.05664 80.88046,56.87332 127,69c46.11954,12.12668 103.05977,-7.43666 160,-27c0,0 0,280 0,280l-1440,0z"/>
  <path transform="rotate(-40.5587 509.336 784.652)" stroke="null" id="svg_4" class="transition-all duration-300 ease-in-out delay-150" fill="url(#gradient)" stroke-width="0" d="m-210.66372,954.11505c0,0 0,-265.99941 0,-265.99941c63.62723,-1.88246 127.25446,-3.76494 168,-24.69995c40.74554,-20.93501 58.60939,-60.92257 98,-43.6999c39.39061,17.22266 100.30799,91.65555 153,104.49977c52.69201,12.84422 97.15865,-35.90023 154,-56.99987c56.84135,-21.09964 126.05742,-14.55452 169,-18.99996c42.94258,-4.44544 59.61169,-19.88148 107,-26.59994c47.38831,-6.71846 125.49584,-4.71938 174,-5.69999c48.50416,-0.98061 67.40497,-4.94092 108,24.69995c40.59503,29.64087 102.8843,92.88291 158,106.39977c55.1157,13.51686 103.05785,-22.69152 151,-58.89987c0,0 0,265.99941 0,265.99941l-1440,0z"/>
 </g>
</svg>